<?xml version="1.0" encoding="utf-8"?>
<!-- Generator: Adobe Illustrator 24.0.0, SVG Export Plug-In . SVG Version: 6.00 Build 0)  -->
<svg version="1.1" id="Layer_1" xmlns="http://www.w3.org/2000/svg" xmlns:xlink="http://www.w3.org/1999/xlink" x="0px" y="0px"
	 viewBox="0 0 86 17" style="enable-background:new 0 0 86 17;" xml:space="preserve">
<style type="text/css">
	.st0{fill:#1D1F23;}
	.st1{fill:#E94D78;}
</style>
<g>
	<g>
		<path class="st0" d="M20.1,3.4c0-0.2-0.2-0.4-0.2-0.6c0,0,0-0.1-0.1-0.1c-0.2-0.1-0.5-0.2-0.8-0.4c-0.1-0.1-0.2-0.1-0.4-0.1
			c-0.2,0.1-0.4,0.1-0.5,0.2c-0.1,0.1-0.2,0.2-0.3,0.2c-0.1,0.1-0.1,0.1-0.2,0.1c-0.1,0.1-0.1,0.1-0.2,0.1c-0.1,0.1-0.2,0.2-0.4,0.3
			C17,3.3,17,3.3,17,3.4c-0.1,0.2-0.2,0.3-0.3,0.5c-0.1,0.1-0.1,0.2-0.2,0.2c-0.1,0.1-0.2,0.2-0.4,0.4c-0.1,0.1-0.2,0.2-0.2,0.2
			c-0.2,0.2-0.5,0.3-0.6,0.5c-0.1,0.1-0.1,0.1-0.2,0.1c-0.1,0-0.1,0.1-0.2,0.1s-0.1,0.1-0.2,0.1c-0.1,0.1-0.2,0.1-0.4,0.2
			c-0.1,0-0.2,0-0.2,0.1c-0.2,0.2-0.4,0.2-0.6,0.3C13.3,6,13.1,6.1,13,6.2s-0.3,0.1-0.4,0.1c-0.1,0.1-0.2,0.1-0.3,0.1
			c-0.2,0.1-0.4,0.2-0.5,0.2c-0.2,0.1-0.5,0.2-0.8,0.2c-0.2,0-0.4-0.1-0.5-0.1c-0.2,0-0.5-0.1-0.7-0.1C9.6,6.6,9.3,6.6,9.1,6.5
			C8.9,6.5,8.8,6.4,8.6,6.4c-0.1,0-0.2-0.1-0.4-0.1C8.2,6.2,8,6.2,7.9,6.2C7.8,6.2,7.7,6.1,7.6,6C7.6,6,7.3,6,7.2,5.9
			C7,5.7,6.9,5.4,6.8,5.3C6.7,5.1,6.6,5,6.5,4.8c0-0.1-0.1-0.2-0.1-0.2C6.3,4.3,6.2,4.2,6.1,4C6.1,4,6,3.9,6,3.8c0-0.1,0-0.1,0-0.1
			C5.9,3.6,5.7,3.4,5.6,3.3c0-0.1-0.1-0.1-0.1-0.1c0-0.1-0.1-0.1-0.1-0.1C5.3,3,5.3,2.8,5.2,2.6C5.1,2.5,5.1,2.3,5,2.2
			c-0.1,0-0.1-0.1-0.1-0.1C4.8,1.9,4.7,1.7,4.7,1.5c0-0.1-0.1-0.1-0.1-0.1C4.5,1.1,4.3,1,4,1H4C3.6,1.1,3.4,1.3,3.2,1.6
			C3.1,1.7,3,1.9,3,2C2.9,2.1,2.9,2.3,2.9,2.4C2.8,2.6,2.7,2.9,2.7,3.1c0,0.1-0.1,0.3-0.1,0.4c0,0.2-0.1,0.5,0,0.7
			c0.1,0.2,0.1,0.4,0.1,0.6C2.7,5,2.7,5.2,2.8,5.4c0.1,0.1,0.1,0.2,0.1,0.4C3,5.9,3,6,3,6.2c0,0.1,0,0.2,0.1,0.2v0.1
			c0,0.1,0.1,0.1,0.1,0.1c0,0.1,0.1,0.1,0.1,0.1c0.1,0.1,0.1,0.2,0.2,0.3L3.6,7c0.1,0.2,0.1,0.3,0.2,0.5v0.1c0,0.1,0,0.2,0,0.3
			c0,0.1,0,0.1,0,0.1C3.7,8,3.6,8.1,3.6,8.2C3.6,8.4,3.6,8.6,3.6,8.7c0,0.1,0,0.1,0,0.2v0.1c0.1,0.2-0.1,0.5-0.1,0.8
			c0.1,0.1,0.1,0.3,0.1,0.5c0,0.1,0,0.2,0,0.2c0,0.1,0,0.2,0,0.3s0,0.1,0,0.1c0.1,0.1,0.1,0.2,0.1,0.3c0,0.2,0.1,0.3,0.1,0.5
			c0,0.1,0,0.2,0.1,0.2c0,0.1,0.1,0.1,0.1,0.2L4,12.1c-0.1,0.2,0.1,0.3,0.1,0.4c0,0.1,0.1,0.2,0.1,0.3c0.1,0.4,0.3,0.6,0.5,0.9
			c0.1,0.2,0.3,0.4,0.4,0.5C5.3,14.8,5.7,15,5.7,15c0.2,0.2,0.5,0.3,0.7,0.4c0.5,0.2,0.9,0.3,1.5,0.4c0.2,0.1,0.5,0.2,0.7,0.2
			c0.2,0,1.1,0.2,1.2,0.2c0.8-0.2,1.2,0.1,2-0.1c0.3-0.1,0.6-0.2,0.9-0.3c0.5-0.1,0.8-0.4,1.4-0.4c0.2,0,1.2-0.5,1.4-0.6
			c0.1-0.2,0.6-0.5,0.7-0.6c0.2-0.2,0.2-0.4,0.4-0.6c0.1-0.2,0.2-0.3,0.2-0.5s0.1-0.4,0.1-0.5c0.1-0.2,0.1-0.3,0.2-0.4
			c0.1-0.1,0.1-0.2,0.1-0.4c0-0.1,0.1-0.1,0.1-0.2c0.1-0.2,0.1-0.4,0.2-0.5c0-0.1,0.1-0.1,0.1-0.1c0-0.1,0.1-0.1,0.1-0.1
			c0-0.1,0-0.2,0.1-0.2c0-0.1,0-0.2,0-0.2s0-0.1,0.1-0.2c0.1-0.1,0.1-0.2,0.1-0.3c-0.1-0.2,0-0.3,0.1-0.4c0.1-0.2,0.1-0.4,0.1-0.6
			c0-0.1,0-0.1,0.1-0.2c0,0,0.1-0.1,0.1-0.1c-0.1-0.2,0-0.4,0.1-0.5c0-0.1,0.1-0.1,0.1-0.2c0-0.1,0.1-0.2,0.2-0.4
			c0.1-0.2,0.2-0.4,0.3-0.5L18.7,7c0-0.1,0.1-0.1,0.1-0.1c0.1-0.2,0.2-0.4,0.4-0.5c0.1,0,0.1-0.1,0.1-0.1c0.1-0.2,0.3-0.4,0.4-0.6
			c0-0.2,0.1-0.3,0.2-0.4c0.1-0.1,0.1-0.1,0.1-0.2c0-0.1,0.1-0.1,0.1-0.1c0.1-0.1,0.1-0.2,0.1-0.3C20,4.5,20,4.4,20,4.4
			c0-0.1,0.1-0.2,0.1-0.4C20.1,3.9,20,3.7,20.1,3.4z M3.6,5.9L3.6,5.9C3.6,5.7,3.5,5.6,3.4,5.5c0,0,0,0,0.1,0
			c0.1,0.1,0.1,0.2,0.2,0.3C3.7,5.8,3.6,5.9,3.6,5.9z M10.4,11.4c0.1-0.1,0.3-0.1,0.4-0.1c0.2-0.1,0.5,0.2,0.4,0.4
			c0,0.1-0.2,0.2-0.3,0.2c-0.1-0.1-0.3,0.1-0.4-0.1c-0.1-0.1-0.2-0.2-0.2-0.4C10.3,11.5,10.3,11.4,10.4,11.4z M9.2,13.1
			c0.1,0,0.1,0.1,0.1,0.1c0.1,0.1,0.1,0.1,0.2,0.1c0.1,0,0.1,0.1,0.2,0.1c0.2,0.1,0.4,0.1,0.5,0.1c0.1,0,0.1,0,0.1,0
			c0.1,0,0.2,0.1,0.3,0c0,0,0.1,0,0.1,0c0.1,0.1,0.2,0.1,0.4,0c0.1,0,0.1,0,0.2,0c0.1,0,0.2,0,0.3,0c0.1,0,0.1-0.1,0.1-0.1
			c0.1-0.1,0.2-0.1,0.3-0.1h0.1c0.1-0.1,0.3-0.2,0.5-0.2c0.1,0,0.1-0.1,0.1-0.1c0,0,0-0.1,0.1-0.1c0.2-0.1,0.4-0.1,0.5-0.2h0.1
			c0.1-0.2,0.3-0.2,0.5-0.4c0.1,0,0.1-0.1,0.2-0.1c0.2-0.1,0.3-0.2,0.5-0.2c0.1-0.1,0.3-0.1,0.4-0.2c0.1,0,0.1-0.1,0.1-0.1
			c0.1,0,0.2,0,0.3-0.1l0.1,0.1c0,0.2-0.1,0.4-0.3,0.5c-0.2,0.1-0.3,0.2-0.4,0.4c0,0.1-0.1,0.1-0.1,0.1c-0.1,0.1-0.1,0.1-0.2,0.1
			c-0.2,0.1-0.4,0.2-0.5,0.4c-0.1,0.1-0.2,0.1-0.4,0.1h-0.1c-0.1,0.1-0.4,0.2-0.5,0.3c-0.1,0.1-0.2,0.1-0.3,0.2c0,0-0.1,0-0.1,0.1
			c-0.1,0-0.1,0-0.2,0.1c-0.1,0.1-0.2,0.1-0.3,0.1c-0.2,0.1-0.5,0.1-0.7,0.1c-0.2,0-0.4,0-0.5,0c-0.2,0-0.4,0-0.5-0.1
			c-0.2,0-0.3,0-0.5-0.1c-0.1,0-0.2-0.1-0.4-0.1c-0.1-0.1-0.2-0.1-0.3-0.1c-0.1-0.1-0.2-0.2-0.4-0.3C8.5,13.2,8.2,13.1,8,13
			c-0.1-0.1-0.1-0.1-0.2-0.2c-0.1-0.1-0.1-0.1-0.2-0.1c-0.1,0-0.2-0.1-0.2-0.2c0,0-0.1-0.1-0.1-0.1c-0.1-0.1-0.3-0.1-0.4-0.3
			c0-0.1-0.1-0.1-0.1-0.1c-0.2-0.2-0.2-0.4-0.1-0.6c0.2-0.1,0.2,0.1,0.4,0.2c0.1,0.1,0.2,0.2,0.4,0.3c0.1,0.1,0.2,0.1,0.4,0.2
			c0.1,0.1,0.2,0.1,0.2,0.1c0.1,0.1,0.2,0.2,0.4,0.3c0.1,0.1,0.2,0.1,0.4,0.2c0.1,0.1,0.2,0.1,0.2,0.2C8.9,13.1,9.1,13.1,9.2,13.1z
			 M8,13.8c0.1,0.1,0.2,0.1,0.2,0.2c-0.1,0-0.1,0.1-0.1,0.1c-0.1,0-0.1,0-0.1-0.1C8,13.8,8,13.8,8,13.8z M6.3,10.6
			c0.2-0.1,0.2,0.1,0.4,0.1v0.1C6.6,10.8,6.5,10.7,6.3,10.6z M8.6,7.4c0.1,0.1,0.2,0.1,0.4,0.1l0,0C8.8,7.6,8.7,7.5,8.6,7.4
			C8.6,7.5,8.6,7.5,8.6,7.4z M5.9,9.1C6,9.2,6.2,9.3,6.3,9.3c0.1,0.1,0.2,0.1,0.3,0.2c0.1,0.1,0.2,0.1,0.3,0.2c0,0,0.1,0,0.1,0
			c0.1,0,0.2,0,0.2,0.1C7.5,9.8,7.6,9.9,7.8,10C7.9,10,7.9,10.1,8,10.2C8,10.2,8,10.2,8,10.2c0.1,0.1,0.2,0.2,0.4,0.2l0.1,0.1
			c0.1,0.1,0.1,0.1,0.1,0.1l0.1,0.1c0.1,0.1,0.1,0.1,0.1,0.1c0.1,0,0.2,0.1,0.2,0.2L9,11.1c0.1,0.1,0.1,0.1,0.1,0.2
			c-0.1,0.1-0.2,0.1-0.2,0.1c-0.2-0.1-0.3-0.1-0.5-0.2c-0.1-0.1-0.2-0.1-0.2-0.2c-0.1-0.1-0.2-0.1-0.4-0.2c-0.1,0-0.2-0.1-0.2-0.2
			c-0.1-0.1-0.1-0.2-0.2-0.2c0,0-0.1,0-0.1-0.1c-0.1-0.1-0.2-0.2-0.4-0.2l-0.1-0.1c-0.2,0-0.4-0.2-0.5-0.2C6.3,9.8,6.2,9.7,6.2,9.6
			L6.1,9.5C5.9,9.5,5.9,9.3,5.9,9.1z M4.9,7.8c0.2,0,0.5,0,0.6,0.1C5.5,7.9,5,8,5,7.9C5,7.9,5,7.9,4.9,7.8z M5.2,13.6
			c-0.1-0.1-0.1-0.2-0.2-0.4c0.1,0.1,0.5,0.7,0.5,0.9c-0.2-0.1-0.2-0.3-0.2-0.4C5.3,13.7,5.2,13.6,5.2,13.6z M15,9.8
			c-0.1,0.1-0.2,0.2-0.4,0.2c-0.2,0.1-0.3,0.2-0.5,0.3c-0.1,0.1-0.1,0.1-0.2,0.2c0,0,0,0-0.1,0.1c-0.3,0.1-0.5,0.4-0.8,0.4
			c-0.2,0.1-0.4,0.1-0.5,0.2c-0.1,0.1-0.2,0.1-0.4,0.2c-0.2,0.1-0.4,0.1-0.5-0.1c-0.1-0.1-0.1-0.2,0.1-0.2c0.1-0.1,0.2-0.1,0.3-0.2
			c0.1-0.1,0.2-0.1,0.2-0.1c0.1-0.1,0.2-0.1,0.4-0.2c0.2-0.1,0.3-0.2,0.5-0.2c0.2-0.1,0.4-0.1,0.5-0.2c0,0,0.1,0,0.1-0.1
			c0.1-0.1,0.2-0.1,0.2-0.1l0.1-0.1c0.2-0.1,0.4-0.2,0.6-0.3c0.2-0.1,0.4-0.2,0.6-0.3c0.1,0,0.2-0.1,0.2,0.1c0,0.1,0.1,0.1,0.2,0.1
			C15.5,9.5,15.3,9.7,15,9.8z"/>
	</g>
</g>
<path class="st1" d="M30.8,1.7c0.1,0,0.3,0,0.4,0c0.4,0.1,0.8,0.2,0.9,0.6c0.2,0.5,0.4,1,0.2,1.7s-0.1,1.6-0.1,2.4
	c0,0.1,0.1,0.2,0,0.2C32.1,7,32,7.3,32.3,7.7c0.1,0.1,0,0.1,0,0.2c-0.4,1.5-0.4,3.1-0.4,4.7c0.6-0.1,1.3,0,1.9,0c1,0.1,2,0.1,3,0.1
	c0.1,0.8,0.1,1.7,0.1,2.5c0,0.3-0.2,0.5-0.5,0.6C36,15.9,35.6,16.1,35,16c-0.6-0.1-1.2-0.1-1.8-0.1s-1.1,0.1-1.7,0.1
	c-0.5,0-1.1,0-1.6-0.1c-0.5-0.1-0.9-0.1-1.4-0.3c-0.4-0.1-0.4-0.5-0.4-0.9c0-0.8,0.1-1.7,0.1-2.5c0-0.8-0.1-1.7-0.2-2.5
	C28,9.1,28,8.4,28,7.6c0-0.1,0.1-0.2,0.1-0.4c0.1-0.2,0.1-0.4,0.1-0.5c-0.2-0.9,0-1.9,0-2.9c0-0.6-0.3-1.1,0.2-1.7
	C29.2,2,30,1.9,30.8,1.7C30.8,1.7,30.8,1.7,30.8,1.7z"/>
<path class="st1" d="M43.9,1.9c0.4-0.1,0.8-0.1,1.1-0.3c0.4-0.1,0.7,0,1.1,0.1c0.2,0.1,0.5,0.1,0.7,0.1c0.4,0,0.7,0.1,1.1,0.4
	c0.2,0.1,0.5,0.1,0.7,0.3c0.5,0.3,1.1,0.3,1.4,0.9c0.1,0.2,0.5,0.3,0.6,0.5c0.2,0.5,0.6,0.8,1.1,1.2c0.1,0.1,0.1,0.1,0.1,0.2
	c0.1,0.6,0.6,1.1,0.8,1.7c0.1,0.2,0.2,0.4,0.2,0.6C52.9,7.7,53,8,53,8.2c0,0.4,0,0.7-0.1,1c-0.2,0.4-0.1,0.8-0.1,1.2
	c0.1,0.4,0.1,0.8-0.2,1.2c-0.1,0.2-0.2,0.5-0.2,0.8c-0.2,0.8-0.5,1.4-1.3,1.7c-0.2,0.1-0.4,0.2-0.5,0.4c-0.3,0.6-1,0.7-1.5,1.1
	c-0.3,0.2-0.6,0.4-1,0.5c-0.4,0.1-0.9,0-1.3,0.1c-0.6,0-1.2-0.1-1.8-0.1c-0.9-0.1-1.9-0.3-2.8-0.6c-0.5-0.2-0.9-0.8-1.4-1.2
	c-0.2-0.2-0.5-0.4-0.6-0.6c-0.2-0.2-0.4-0.4-0.5-0.6c-0.1-0.1-0.2-0.2-0.2-0.4s-0.2-0.2-0.2-0.3c-0.2-0.6-0.3-1.1-0.4-1.7
	c0-0.1-0.1-0.1-0.1-0.2c0.4-0.8-0.2-1.7,0-2.5c0.1-0.5,0.3-0.9,0.4-1.5c0-0.2,0.2-0.3,0.3-0.5c0.1-0.1,0.1-0.2,0.1-0.3
	c0.1-0.9,0.5-1.6,1.2-2.1C40.9,3.3,41,3,41.2,2.9c0.3-0.2,0.6-0.4,0.9-0.5c0.4-0.2,0.7-0.4,1.1-0.5C43.4,2,43.7,1.9,43.9,1.9
	C43.9,1.9,43.9,1.9,43.9,1.9z M43.2,9.5C43.1,9.5,43.1,9.5,43.2,9.5c0,0.2,0.1,0.4,0.1,0.6c0.3,0.5,0.6,0.9,1,1.4
	c0.9,0.4,1.8,0.6,2.8,0.4c0.2-0.1,0.5-0.2,0.5-0.3c0.4-0.9,0.9-1.8,0.9-2.8c0-0.2,0.1-0.5,0.1-0.7c0-0.1,0.1-0.3,0-0.4
	c-0.3-0.6-0.7-1.3-1.5-1.4c-0.2,0-0.4-0.1-0.6-0.1c-0.4,0-0.9,0.1-1.3,0.1c-0.2,0-0.4,0.2-0.5,0.2c-0.4,0.1-0.6,0.2-0.7,0.5
	c-0.1,0.1-0.2,0.3-0.2,0.4c-0.4,0.6-0.7,1.2-0.5,2C43.2,9.3,43.2,9.4,43.2,9.5z M45.5,13.5c-0.2-0.4-0.3-0.4-0.7-0.1
	C45,13.4,45.2,13.4,45.5,13.5z"/>
<path class="st1" d="M64.4,15.9c-0.5,0-0.9,0.1-1.3,0c-0.2-0.1-0.5-0.3-0.6-0.5c0,0,0-0.1-0.1-0.1c-0.5-0.2-0.5-0.8-0.7-1.1
	c-0.1-0.1-0.1-0.2-0.1-0.3c-0.1-0.5-0.4-0.9-0.6-1.4c-0.1-0.1-0.1-0.3-0.1-0.4c-0.1-0.6-0.2-1.1-0.9-1.3c-0.1-0.1-0.4-0.1-0.4-0.1
	c-0.1,0.1-0.2,0.3-0.1,0.4c0.2,0.4,0,0.9,0.1,1.4c0.1,0.6,0.1,1.2-0.1,1.8c-0.1,0.2,0,0.5-0.1,0.8c-0.1,0.5-1.3,1.1-1.9,0.8
	c-0.1-0.1-0.3-0.1-0.4-0.1c-0.7,0.2-1.2-0.2-1.8-0.5c-0.1,0-0.1-0.1-0.1-0.2c-0.1-0.2-0.2-0.3-0.2-0.5c-0.1-0.2-0.1-0.4-0.1-0.5
	c0.1-0.7,0.1-1.4,0.2-2.1C55,11.4,55,10.6,55,9.8C55,9.4,55,9,55,8.6C55,8.3,55,8,55,7.7c0-0.6-0.1-1.3,0-1.9c0-0.5,0.1-1,0.1-1.5
	c0-0.6,0.1-1.2,0-1.9c0-0.4,0.1-0.6,0.4-0.8c0.6-0.3,1.1-0.4,1.8-0.3c0.4,0.1,0.8-0.1,1.2-0.1c0.8,0,1.6,0.1,2.4,0.1
	c0.7,0,1.4-0.1,2.2-0.1c0.8,0.1,1.4,0.6,2.1,0.8c0.4,0.1,0.5,0.4,0.6,0.7c0.2,0.4,0.4,0.7,0.5,1.1c0.1,0.3,0.1,0.6,0.2,0.9
	c0.3,0.7,0.1,1.4-0.1,2.1c-0.1,0.3-0.2,0.5-0.4,0.8c-0.4,0.7-0.7,1.5-1.2,2.1c-0.3,0.4-0.4,0.6-0.3,1.2c0.2,0.9,0.4,1.8,0.8,2.6
	c0.2,0.4,0.4,0.7,0.5,1.1c0.2,0.5,0,0.9-0.5,1.1c-0.1,0-0.1,0-0.1,0.1C64.8,15.9,64.8,15.9,64.4,15.9z M60.8,7.2
	c0.4,0.2,0.6-0.2,1-0.4c0.4-0.2,0.5-0.6,0.5-1.1c-0.1-0.3-0.1-0.5-0.2-0.8c-0.1-0.1-0.2-0.2-0.4-0.3c-0.5-0.1-0.9-0.2-1.4-0.4
	c-0.4-0.1-0.9,0.2-0.8,0.5c0.1,0.6,0.1,1.2,0.2,1.7c0.1,0.4,0.2,0.5,0.6,0.6C60.5,7.2,60.6,7.2,60.8,7.2z"/>
<g>
	<path class="st1" d="M71.7,14.9c-0.3,0.7-1.3,1.4-2.1,1.2c-0.2-0.1-0.8,0-1,0c-0.8,0-0.9-0.2-0.8-1.1c0.1-0.6,0.4-0.4,0.7-0.8
		c0.2-0.3,0.9-1.7,1.1-2c0.1-0.3,0.2-0.6,0.4-0.8c0.2-0.4,0.2-0.9,0.5-1.1c0.3-0.2,0.4-3.4,0.5-3.8c0.2-0.4,0.5-0.6,1-0.6
		c0.8,0.1,0.1-0.1,0.9,0c0.6,0,1.5,0,1.7,0.5c0.2,0.8,0.3,3.1,0.4,3.4c0.7,1.9,0.6,3.1,1.1,3.8s1.3,0.5,1.5,1.2
		c0,0.1,0.2,0.6,0.2,0.8c-0.2,0.4-0.9,0.4-1.6,0.5c-0.7,0.1-1.5-0.2-2-0.5c-1.3-0.9-1.3-1.3-1.7-1.8C72.4,13.6,71.8,14.5,71.7,14.9z
		"/>
	<path class="st1" d="M72.6,1.3c0.5,0.1,1.1,0.1,1.7,0.2c0.5,0.1,0.7,0.4,0.8,0.8C75.1,2.7,75,3,74.6,3.3c-0.4,0.4-1,0.3-1.5,0.5
		c-0.4,0.1-0.8,0.1-1.2,0.1c-0.5-0.1-0.6-0.4-0.7-0.7c-0.1-0.4-0.1-0.8,0.2-1.1c0.2-0.2,0.4-0.4,0.6-0.6C72.3,1.4,72.4,1.3,72.6,1.3
		C72.6,1.3,72.6,1.3,72.6,1.3z"/>
</g>
</svg>
